# xmcd CD database file generated by libcdaudio 0.99.9
# 
# Track frame offsets:
#       150
#       10321
#       25269
#       37116
#       51708
#       62031
#       74942
#       88290
#       103346
#       115242
#       128284
#       139540
#       153687
#       166881
#       180547
#       193604
#       204382
#       219637
#       232383
#       245787
# 
# Disc length: 3461 seconds
# 
# Revision: 0
# Processed by: cddbd v1.5.1PL0 Copyright (c) Steve Scherf et al.
# Submitted via: libcdaudio 0.99.9
# 
DISCID=3a0d8314
DTITLE=Dinah Washington - Portrait
DYEAR=1900
DGENRE=
TTITLE0=Never, Never
TTITLE1=Feel like I wanna cry
TTITLE2=I ain't goin' to cry no more
TTITLE3=Am i blue
TTITLE4=Pennies from Heaven
TTITLE5=Just one more Chance
TTITLE6=Make believe Dreams
TTITLE7=Cold, cold Heart
TTITLE8=I'm a Fool to want you
TTITLE9=Ain't nothin' good
TTITLE10=My Man's an Undertaker
TTITLE11=Don't get around much anymore
TTITLE12=My Song
TTITLE13=Stormy Weather
TTITLE14=Ain't nothing good
TTITLE15=Go pretty Daddy
TTITLE16=My kind of Man
TTITLE17=I wanna be loved
TTITLE18=Mixed Emotions
TTITLE19=My Devotion
EXTD=
EXTT0=New York, June 10, 1953
EXTT1=New York, June 10, 1953
EXTT2=New York, June 10, 1953
EXTT3=Chikago, June 17, 1953
EXTT4=New york, June 17, 1953
EXTT5=June 1, 1951
EXTT6=1952
EXTT7=September 24, 1951
EXTT8=
EXTT9=Chikago, early 1953
EXTT10=late Summer 1953
EXTT11=Chikago, early 1953
EXTT12=1952
EXTT13=March 24, 1952
EXTT14=Chikago, early 1953
EXTT15=New York, June 10, 1953
EXTT16=February 27, 1950
EXTT17=May 9, 1950
EXTT18=September 24, 1951
EXTT19=1952
PLAYORDER=
